<?xml version="1.0" encoding="utf-8"?>
<!-- Generator: Adobe Illustrator 17.0.0, SVG Export Plug-In . SVG Version: 6.00 Build 0)  -->
<!DOCTYPE svg PUBLIC "-//W3C//DTD SVG 1.1//EN" "http://www.w3.org/Graphics/SVG/1.1/DTD/svg11.dtd">
<svg version="1.1" xmlns="http://www.w3.org/2000/svg" xmlns:xlink="http://www.w3.org/1999/xlink" x="0px" y="0px" width="60px"
	 height="60px" viewBox="1040.5 0.5 60 60" style="enable-background:new 1040.5 0.5 60 60;" xml:space="preserve">
<style type="text/css">
	.st0{display:none;}
	.st1{display:inline;}
	.st2{fill:#FFFFFF;}
	.st3{fill:#787878;}
	.st4{fill:#333333;}
	.st5{fill:#BEBEBE;}
	.st6{display:inline;fill:#FFFFFF;}
	.st7{font-family:'Menlo-Bold';}
	.st8{font-size:13;}
</style>
<g id="Base_000000" class="st0">
	<g class="st1">
		<path d="M1082.875,28.875h-33c-0.825,0-1.5,0.675-1.5,1.5v15c0,0.825,0.675,1.5,1.5,1.5h33c0.827,0,1.5-0.675,1.5-1.5v-15
			C1084.375,29.55,1083.702,28.875,1082.875,28.875z"/>
		<path d="M1088.875,17.754l-9.879-9.879c-0.867-0.87-2.391-1.5-3.621-1.5h-16.5c-2.481,0-4.5,2.019-4.5,4.5v15
			c0,0.829,0.671,1.5,1.5,1.5s1.5-0.67,1.5-1.5v-15c0-0.826,0.672-1.5,1.5-1.5h13.5c1.657,0,3,1.344,3,3V18
			c0,1.857,1.521,3.375,3.375,3.375h5.625c1.657,0,3,1.344,3,3v25.5c0,0.826-0.671,1.5-1.5,1.5h-27c-0.828,0-1.5-0.674-1.5-1.5
			c0-0.829-0.671-1.5-1.5-1.5s-1.5,0.671-1.5,1.5c0,2.481,2.019,4.5,4.5,4.5h27c2.481,0,4.5-2.019,4.5-4.5v-28.5
			C1090.375,20.146,1089.745,18.622,1088.875,17.754z"/>
	</g>
</g>
<g id="Base_787878" class="st0">
	<g class="st1">
		<path class="st3" d="M1082.875,28.875h-33c-0.825,0-1.5,0.675-1.5,1.5v15c0,0.825,0.675,1.5,1.5,1.5h33c0.827,0,1.5-0.675,1.5-1.5
			v-15C1084.375,29.55,1083.702,28.875,1082.875,28.875z"/>
		<path class="st3" d="M1088.875,17.754l-9.879-9.879c-0.867-0.87-2.391-1.5-3.621-1.5h-16.5c-2.481,0-4.5,2.019-4.5,4.5v15
			c0,0.829,0.671,1.5,1.5,1.5s1.5-0.67,1.5-1.5v-15c0-0.826,0.672-1.5,1.5-1.5h13.5c1.657,0,3,1.344,3,3V18
			c0,1.857,1.521,3.375,3.375,3.375h5.625c1.657,0,3,1.344,3,3v25.5c0,0.826-0.671,1.5-1.5,1.5h-27c-0.828,0-1.5-0.674-1.5-1.5
			c0-0.829-0.671-1.5-1.5-1.5s-1.5,0.671-1.5,1.5c0,2.481,2.019,4.5,4.5,4.5h27c2.481,0,4.5-2.019,4.5-4.5v-28.5
			C1090.375,20.146,1089.745,18.622,1088.875,17.754z"/>
	</g>
</g>
<g id="Base_333333" class="st0">
	<g class="st1">
		<path class="st4" d="M1082.875,28.875h-33c-0.825,0-1.5,0.675-1.5,1.5v15c0,0.825,0.675,1.5,1.5,1.5h33c0.827,0,1.5-0.675,1.5-1.5
			v-15C1084.375,29.55,1083.702,28.875,1082.875,28.875z"/>
		<path class="st4" d="M1088.875,17.754l-9.879-9.879c-0.867-0.87-2.391-1.5-3.621-1.5h-16.5c-2.481,0-4.5,2.019-4.5,4.5v15
			c0,0.829,0.671,1.5,1.5,1.5s1.5-0.67,1.5-1.5v-15c0-0.826,0.672-1.5,1.5-1.5h13.5c1.657,0,3,1.344,3,3V18
			c0,1.857,1.521,3.375,3.375,3.375h5.625c1.657,0,3,1.344,3,3v25.5c0,0.826-0.671,1.5-1.5,1.5h-27c-0.828,0-1.5-0.674-1.5-1.5
			c0-0.829-0.671-1.5-1.5-1.5s-1.5,0.671-1.5,1.5c0,2.481,2.019,4.5,4.5,4.5h27c2.481,0,4.5-2.019,4.5-4.5v-28.5
			C1090.375,20.146,1089.745,18.622,1088.875,17.754z"/>
	</g>
</g>
<g id="Base_bebebe">
	<g>
		<path class="st5" d="M1082.875,28.875h-33c-0.825,0-1.5,0.675-1.5,1.5v15c0,0.825,0.675,1.5,1.5,1.5h33c0.827,0,1.5-0.675,1.5-1.5
			v-15C1084.375,29.55,1083.702,28.875,1082.875,28.875z"/>
		<path class="st5" d="M1088.875,17.754l-9.879-9.879c-0.867-0.87-2.391-1.5-3.621-1.5h-16.5c-2.481,0-4.5,2.019-4.5,4.5v15
			c0,0.829,0.671,1.5,1.5,1.5s1.5-0.67,1.5-1.5v-15c0-0.826,0.672-1.5,1.5-1.5h13.5c1.657,0,3,1.344,3,3V18
			c0,1.857,1.521,3.375,3.375,3.375h5.625c1.657,0,3,1.344,3,3v25.5c0,0.826-0.671,1.5-1.5,1.5h-27c-0.828,0-1.5-0.674-1.5-1.5
			c0-0.829-0.671-1.5-1.5-1.5s-1.5,0.671-1.5,1.5c0,2.481,2.019,4.5,4.5,4.5h27c2.481,0,4.5-2.019,4.5-4.5v-28.5
			C1090.375,20.146,1089.745,18.622,1088.875,17.754z"/>
	</g>
</g>
<g id="flv" class="st0">
</g>
<g id="mov" class="st0">
</g>
<g id="pdf" class="st0">
</g>
<g id="svg" class="st0">
</g>
<g id="tiff" class="st0">
</g>
<g id="psd" class="st0">
</g>
<g id="mp4" class="st0">
</g>
<g id="m4v" class="st0">
</g>
<g id="doc" class="st0">
</g>
<g id="rtf" class="st0">
</g>
<g id="xls" class="st0">
</g>
<g id="ott" class="st0">
</g>
<g id="odt" class="st0">
</g>
<g id="txt" class="st0">
</g>
<g id="docx" class="st0">
	<text transform="matrix(1 0 0 1 1051.1118 42.375)" class="st6 st7 st8">DOCX</text>
</g>
<g id="ppt" class="st0">
</g>
<g id="xlsx" class="st0">
</g>
<g id="ods" class="st0">
</g>
<g id="jpg" class="st0">
</g>
<g id="png" class="st0">
</g>
<g id="ods_1_" class="st0">
</g>
<g id="po" class="st0">
</g>
<g id="flv_copy">
</g>
<g id="mov_copy">
</g>
<g id="pdf_copy">
</g>
<g id="svg_copy">
</g>
<g id="tiff_copy">
</g>
<g id="psd_copy">
</g>
<g id="mp4_copy">
</g>
<g id="m4v_copy">
</g>
<g id="doc_copy">
</g>
<g id="rtf_copy">
</g>
<g id="xls_copy">
</g>
<g id="ott_copy">
</g>
<g id="odt_copy">
</g>
<g id="txt_copy">
</g>
<g id="docx_copy">
	<g>
		<path class="st2" d="M1051.981,33.084h2.006c1.549,0,2.664,0.369,3.345,1.107c0.682,0.738,1.022,1.945,1.022,3.621
			c0,1.68-0.341,2.892-1.022,3.634c-0.681,0.743-1.796,1.114-3.345,1.114h-2.006V33.084z M1053.854,34.771v6.101h0.508
			c0.736,0,1.262-0.231,1.574-0.695c0.313-0.463,0.471-1.251,0.471-2.364c0-1.104-0.157-1.887-0.471-2.349
			c-0.312-0.462-0.838-0.692-1.574-0.692H1053.854z"/>
		<path class="st2" d="M1059.263,37.832c0-1.621,0.28-2.846,0.841-3.676s1.389-1.244,2.485-1.244c1.101,0,1.931,0.414,2.491,1.244
			s0.842,2.055,0.842,3.676c0,1.616-0.281,2.839-0.842,3.668c-0.561,0.83-1.391,1.244-2.491,1.244c-1.097,0-1.925-0.414-2.485-1.244
			C1059.543,40.671,1059.263,39.448,1059.263,37.832z M1062.589,34.594c-0.478,0-0.827,0.256-1.048,0.766
			c-0.22,0.51-0.33,1.334-0.33,2.473c0,1.134,0.11,1.955,0.33,2.466c0.221,0.51,0.57,0.765,1.048,0.765
			c0.482,0,0.833-0.255,1.054-0.765c0.221-0.511,0.33-1.332,0.33-2.466c0-1.139-0.109-1.963-0.33-2.473
			S1063.071,34.594,1062.589,34.594z"/>
		<path class="st2" d="M1073.107,42.287c-0.297,0.152-0.607,0.268-0.934,0.344s-0.668,0.113-1.028,0.113
			c-1.278,0-2.253-0.42-2.927-1.263c-0.672-0.843-1.009-2.059-1.009-3.649c0-1.596,0.337-2.814,1.009-3.656
			c0.674-0.843,1.648-1.264,2.927-1.264c0.36,0,0.704,0.038,1.034,0.114s0.64,0.19,0.928,0.343v2.082
			c-0.322-0.297-0.635-0.514-0.937-0.65c-0.303-0.138-0.614-0.207-0.937-0.207c-0.686,0-1.203,0.272-1.552,0.816
			c-0.35,0.543-0.524,1.351-0.524,2.422c0,1.066,0.175,1.871,0.524,2.415c0.349,0.544,0.866,0.815,1.552,0.815
			c0.322,0,0.634-0.068,0.937-0.206c0.302-0.138,0.614-0.354,0.937-0.651V42.287z"/>
		<path class="st2" d="M1081.467,42.561h-1.936l-1.809-3.136l-1.803,3.136h-1.937l2.78-4.812l-2.704-4.665h1.937l1.727,3.015
			l1.732-3.015h1.936l-2.691,4.665L1081.467,42.561z"/>
	</g>
</g>
<g id="ppt_copy">
</g>
<g id="xlsx_copy">
</g>
<g id="ods_copy_2">
</g>
<g id="jpg_copy">
</g>
<g id="png_copy">
</g>
<g id="ods_copy">
</g>
<g id="po_copy">
</g>
</svg>
