<?xml version="1.0" encoding="utf-8"?>
<!-- Generator: Adobe Illustrator 17.0.0, SVG Export Plug-In . SVG Version: 6.00 Build 0)  -->
<!DOCTYPE svg PUBLIC "-//W3C//DTD SVG 1.1//EN" "http://www.w3.org/Graphics/SVG/1.1/DTD/svg11.dtd">
<svg version="1.1" xmlns="http://www.w3.org/2000/svg" xmlns:xlink="http://www.w3.org/1999/xlink" x="0px" y="0px" width="60px"
	 height="60px" viewBox="880.5 0.5 60 60" style="enable-background:new 880.5 0.5 60 60;" xml:space="preserve">
<style type="text/css">
	.st0{display:none;}
	.st1{display:inline;}
	.st2{fill:#FFFFFF;}
	.st3{fill:#787878;}
	.st4{fill:#333333;}
	.st5{fill:#BEBEBE;}
	.st6{font-family:'Menlo-Bold';}
	.st7{font-size:13;}
</style>
<g id="Base_000000" class="st0">
	<g class="st1">
		<path d="M922.875,28.875h-33c-0.825,0-1.5,0.675-1.5,1.5v15c0,0.825,0.675,1.5,1.5,1.5h33c0.826,0,1.5-0.675,1.5-1.5v-15
			C924.375,29.55,923.701,28.875,922.875,28.875z"/>
		<path d="M928.875,17.754l-9.879-9.879c-0.867-0.87-2.391-1.5-3.621-1.5h-16.5c-2.481,0-4.5,2.019-4.5,4.5v15
			c0,0.829,0.67,1.5,1.5,1.5s1.5-0.67,1.5-1.5v-15c0-0.826,0.672-1.5,1.5-1.5h13.5c1.657,0,3,1.344,3,3V18
			c0,1.857,1.521,3.375,3.375,3.375h5.625c1.657,0,3,1.344,3,3v25.5c0,0.826-0.67,1.5-1.5,1.5h-27c-0.828,0-1.5-0.674-1.5-1.5
			c0-0.829-0.67-1.5-1.5-1.5s-1.5,0.671-1.5,1.5c0,2.481,2.019,4.5,4.5,4.5h27c2.481,0,4.5-2.019,4.5-4.5v-28.5
			C930.375,20.146,929.745,18.622,928.875,17.754z"/>
	</g>
</g>
<g id="Base_787878" class="st0">
	<g class="st1">
		<path class="st3" d="M922.875,28.875h-33c-0.825,0-1.5,0.675-1.5,1.5v15c0,0.825,0.675,1.5,1.5,1.5h33c0.826,0,1.5-0.675,1.5-1.5
			v-15C924.375,29.55,923.701,28.875,922.875,28.875z"/>
		<path class="st3" d="M928.875,17.754l-9.879-9.879c-0.867-0.87-2.391-1.5-3.621-1.5h-16.5c-2.481,0-4.5,2.019-4.5,4.5v15
			c0,0.829,0.67,1.5,1.5,1.5s1.5-0.67,1.5-1.5v-15c0-0.826,0.672-1.5,1.5-1.5h13.5c1.657,0,3,1.344,3,3V18
			c0,1.857,1.521,3.375,3.375,3.375h5.625c1.657,0,3,1.344,3,3v25.5c0,0.826-0.67,1.5-1.5,1.5h-27c-0.828,0-1.5-0.674-1.5-1.5
			c0-0.829-0.67-1.5-1.5-1.5s-1.5,0.671-1.5,1.5c0,2.481,2.019,4.5,4.5,4.5h27c2.481,0,4.5-2.019,4.5-4.5v-28.5
			C930.375,20.146,929.745,18.622,928.875,17.754z"/>
	</g>
</g>
<g id="Base_333333" class="st0">
	<g class="st1">
		<path class="st4" d="M922.875,28.875h-33c-0.825,0-1.5,0.675-1.5,1.5v15c0,0.825,0.675,1.5,1.5,1.5h33c0.826,0,1.5-0.675,1.5-1.5
			v-15C924.375,29.55,923.701,28.875,922.875,28.875z"/>
		<path class="st4" d="M928.875,17.754l-9.879-9.879c-0.867-0.87-2.391-1.5-3.621-1.5h-16.5c-2.481,0-4.5,2.019-4.5,4.5v15
			c0,0.829,0.67,1.5,1.5,1.5s1.5-0.67,1.5-1.5v-15c0-0.826,0.672-1.5,1.5-1.5h13.5c1.657,0,3,1.344,3,3V18
			c0,1.857,1.521,3.375,3.375,3.375h5.625c1.657,0,3,1.344,3,3v25.5c0,0.826-0.67,1.5-1.5,1.5h-27c-0.828,0-1.5-0.674-1.5-1.5
			c0-0.829-0.67-1.5-1.5-1.5s-1.5,0.671-1.5,1.5c0,2.481,2.019,4.5,4.5,4.5h27c2.481,0,4.5-2.019,4.5-4.5v-28.5
			C930.375,20.146,929.745,18.622,928.875,17.754z"/>
	</g>
</g>
<g id="Base_bebebe">
	<g>
		<path class="st5" d="M922.875,28.875h-33c-0.825,0-1.5,0.675-1.5,1.5v15c0,0.825,0.675,1.5,1.5,1.5h33c0.826,0,1.5-0.675,1.5-1.5
			v-15C924.375,29.55,923.701,28.875,922.875,28.875z"/>
		<path class="st5" d="M928.875,17.754l-9.879-9.879c-0.867-0.87-2.391-1.5-3.621-1.5h-16.5c-2.481,0-4.5,2.019-4.5,4.5v15
			c0,0.829,0.67,1.5,1.5,1.5s1.5-0.67,1.5-1.5v-15c0-0.826,0.672-1.5,1.5-1.5h13.5c1.657,0,3,1.344,3,3V18
			c0,1.857,1.521,3.375,3.375,3.375h5.625c1.657,0,3,1.344,3,3v25.5c0,0.826-0.67,1.5-1.5,1.5h-27c-0.828,0-1.5-0.674-1.5-1.5
			c0-0.829-0.67-1.5-1.5-1.5s-1.5,0.671-1.5,1.5c0,2.481,2.019,4.5,4.5,4.5h27c2.481,0,4.5-2.019,4.5-4.5v-28.5
			C930.375,20.146,929.745,18.622,928.875,17.754z"/>
	</g>
</g>
<g id="flv" class="st0">
</g>
<g id="mov" class="st0">
</g>
<g id="pdf" class="st0">
</g>
<g id="svg" class="st0">
</g>
<g id="tiff" class="st0">
</g>
<g id="psd" class="st0">
</g>
<g id="mp4" class="st0">
</g>
<g id="m4v" class="st0">
</g>
<g id="doc" class="st0">
</g>
<g id="rtf" class="st0">
</g>
<g id="xls" class="st0">
</g>
<g id="ott" class="st0">
</g>
<g id="odt" class="st0">
	<text transform="matrix(1 0 0 1 894.4399 42.375)" class="st1"><tspan x="0" y="0" class="st2 st6 st7">O</tspan><tspan x="8.217" y="0" class="st2 st6 st7">DT</tspan></text>
</g>
<g id="txt" class="st0">
</g>
<g id="docx" class="st0">
</g>
<g id="ppt" class="st0">
</g>
<g id="xlsx" class="st0">
</g>
<g id="ods" class="st0">
</g>
<g id="jpg" class="st0">
</g>
<g id="png" class="st0">
</g>
<g id="ods_1_" class="st0">
</g>
<g id="po" class="st0">
</g>
<g id="flv_copy">
</g>
<g id="mov_copy">
</g>
<g id="pdf_copy">
</g>
<g id="svg_copy">
</g>
<g id="tiff_copy">
</g>
<g id="psd_copy">
</g>
<g id="mp4_copy">
</g>
<g id="m4v_copy">
</g>
<g id="doc_copy">
</g>
<g id="rtf_copy">
</g>
<g id="xls_copy">
</g>
<g id="ott_copy">
</g>
<g id="odt_copy">
	<g>
		<path class="st2" d="M895.023,37.832c0-1.621,0.281-2.846,0.842-3.676s1.389-1.244,2.484-1.244c1.101,0,1.932,0.414,2.492,1.244
			s0.841,2.055,0.841,3.676c0,1.616-0.28,2.839-0.841,3.668c-0.561,0.83-1.392,1.244-2.492,1.244c-1.096,0-1.924-0.414-2.484-1.244
			C895.305,40.671,895.023,39.448,895.023,37.832z M898.35,34.594c-0.478,0-0.826,0.256-1.047,0.766s-0.33,1.334-0.33,2.473
			c0,1.134,0.109,1.955,0.33,2.466c0.221,0.51,0.569,0.765,1.047,0.765c0.482,0,0.834-0.255,1.055-0.765
			c0.22-0.511,0.33-1.332,0.33-2.466c0-1.139-0.11-1.963-0.33-2.473C899.184,34.85,898.832,34.594,898.35,34.594z"/>
		<path class="st2" d="M903.526,33.084h2.006c1.549,0,2.664,0.369,3.345,1.107c0.682,0.738,1.022,1.945,1.022,3.621
			c0,1.68-0.341,2.892-1.022,3.634c-0.681,0.743-1.796,1.114-3.345,1.114h-2.006V33.084z M905.398,34.771v6.101h0.508
			c0.736,0,1.262-0.231,1.574-0.695c0.313-0.463,0.471-1.251,0.471-2.364c0-1.104-0.157-1.887-0.471-2.349
			c-0.312-0.462-0.838-0.692-1.574-0.692H905.398z"/>
		<path class="st2" d="M915.333,42.561h-1.872v-7.84h-2.406v-1.637h6.684v1.637h-2.405V42.561z"/>
	</g>
</g>
<g id="txt_copy">
</g>
<g id="docx_copy">
</g>
<g id="ppt_copy">
</g>
<g id="xlsx_copy">
</g>
<g id="ods_copy_2">
</g>
<g id="jpg_copy">
</g>
<g id="png_copy">
</g>
<g id="ods_copy">
</g>
<g id="po_copy">
</g>
</svg>
