<?xml version="1.0" encoding="utf-8"?>
<!-- Generator: Adobe Illustrator 17.0.0, SVG Export Plug-In . SVG Version: 6.00 Build 0)  -->
<!DOCTYPE svg PUBLIC "-//W3C//DTD SVG 1.1//EN" "http://www.w3.org/Graphics/SVG/1.1/DTD/svg11.dtd">
<svg version="1.1" xmlns="http://www.w3.org/2000/svg" xmlns:xlink="http://www.w3.org/1999/xlink" x="0px" y="0px" width="60px"
	 height="60px" viewBox="800.5 0.5 60 60" style="enable-background:new 800.5 0.5 60 60;" xml:space="preserve">
<style type="text/css">
	.st0{display:none;}
	.st1{display:inline;}
	.st2{fill:#FFFFFF;}
	.st3{fill:#787878;}
	.st4{fill:#333333;}
	.st5{fill:#BEBEBE;}
	.st6{font-family:'Menlo-Bold';}
	.st7{font-size:13;}
</style>
<g id="Base_000000" class="st0">
	<g class="st1">
		<path d="M842.875,28.875h-33c-0.825,0-1.5,0.675-1.5,1.5v15c0,0.825,0.675,1.5,1.5,1.5h33c0.826,0,1.5-0.675,1.5-1.5v-15
			C844.375,29.55,843.701,28.875,842.875,28.875z"/>
		<path d="M848.875,17.754l-9.879-9.879c-0.867-0.87-2.391-1.5-3.621-1.5h-16.5c-2.481,0-4.5,2.019-4.5,4.5v15
			c0,0.829,0.67,1.5,1.5,1.5s1.5-0.67,1.5-1.5v-15c0-0.826,0.672-1.5,1.5-1.5h13.5c1.657,0,3,1.344,3,3V18
			c0,1.857,1.521,3.375,3.375,3.375h5.625c1.657,0,3,1.344,3,3v25.5c0,0.826-0.67,1.5-1.5,1.5h-27c-0.828,0-1.5-0.674-1.5-1.5
			c0-0.829-0.67-1.5-1.5-1.5s-1.5,0.671-1.5,1.5c0,2.481,2.019,4.5,4.5,4.5h27c2.481,0,4.5-2.019,4.5-4.5v-28.5
			C850.375,20.146,849.745,18.622,848.875,17.754z"/>
	</g>
</g>
<g id="Base_787878" class="st0">
	<g class="st1">
		<path class="st3" d="M842.875,28.875h-33c-0.825,0-1.5,0.675-1.5,1.5v15c0,0.825,0.675,1.5,1.5,1.5h33c0.826,0,1.5-0.675,1.5-1.5
			v-15C844.375,29.55,843.701,28.875,842.875,28.875z"/>
		<path class="st3" d="M848.875,17.754l-9.879-9.879c-0.867-0.87-2.391-1.5-3.621-1.5h-16.5c-2.481,0-4.5,2.019-4.5,4.5v15
			c0,0.829,0.67,1.5,1.5,1.5s1.5-0.67,1.5-1.5v-15c0-0.826,0.672-1.5,1.5-1.5h13.5c1.657,0,3,1.344,3,3V18
			c0,1.857,1.521,3.375,3.375,3.375h5.625c1.657,0,3,1.344,3,3v25.5c0,0.826-0.67,1.5-1.5,1.5h-27c-0.828,0-1.5-0.674-1.5-1.5
			c0-0.829-0.67-1.5-1.5-1.5s-1.5,0.671-1.5,1.5c0,2.481,2.019,4.5,4.5,4.5h27c2.481,0,4.5-2.019,4.5-4.5v-28.5
			C850.375,20.146,849.745,18.622,848.875,17.754z"/>
	</g>
</g>
<g id="Base_333333" class="st0">
	<g class="st1">
		<path class="st4" d="M842.875,28.875h-33c-0.825,0-1.5,0.675-1.5,1.5v15c0,0.825,0.675,1.5,1.5,1.5h33c0.826,0,1.5-0.675,1.5-1.5
			v-15C844.375,29.55,843.701,28.875,842.875,28.875z"/>
		<path class="st4" d="M848.875,17.754l-9.879-9.879c-0.867-0.87-2.391-1.5-3.621-1.5h-16.5c-2.481,0-4.5,2.019-4.5,4.5v15
			c0,0.829,0.67,1.5,1.5,1.5s1.5-0.67,1.5-1.5v-15c0-0.826,0.672-1.5,1.5-1.5h13.5c1.657,0,3,1.344,3,3V18
			c0,1.857,1.521,3.375,3.375,3.375h5.625c1.657,0,3,1.344,3,3v25.5c0,0.826-0.67,1.5-1.5,1.5h-27c-0.828,0-1.5-0.674-1.5-1.5
			c0-0.829-0.67-1.5-1.5-1.5s-1.5,0.671-1.5,1.5c0,2.481,2.019,4.5,4.5,4.5h27c2.481,0,4.5-2.019,4.5-4.5v-28.5
			C850.375,20.146,849.745,18.622,848.875,17.754z"/>
	</g>
</g>
<g id="Base_bebebe">
	<g>
		<path class="st5" d="M842.875,28.875h-33c-0.825,0-1.5,0.675-1.5,1.5v15c0,0.825,0.675,1.5,1.5,1.5h33c0.826,0,1.5-0.675,1.5-1.5
			v-15C844.375,29.55,843.701,28.875,842.875,28.875z"/>
		<path class="st5" d="M848.875,17.754l-9.879-9.879c-0.867-0.87-2.391-1.5-3.621-1.5h-16.5c-2.481,0-4.5,2.019-4.5,4.5v15
			c0,0.829,0.67,1.5,1.5,1.5s1.5-0.67,1.5-1.5v-15c0-0.826,0.672-1.5,1.5-1.5h13.5c1.657,0,3,1.344,3,3V18
			c0,1.857,1.521,3.375,3.375,3.375h5.625c1.657,0,3,1.344,3,3v25.5c0,0.826-0.67,1.5-1.5,1.5h-27c-0.828,0-1.5-0.674-1.5-1.5
			c0-0.829-0.67-1.5-1.5-1.5s-1.5,0.671-1.5,1.5c0,2.481,2.019,4.5,4.5,4.5h27c2.481,0,4.5-2.019,4.5-4.5v-28.5
			C850.375,20.146,849.745,18.622,848.875,17.754z"/>
	</g>
</g>
<g id="flv" class="st0">
</g>
<g id="mov" class="st0">
</g>
<g id="pdf" class="st0">
</g>
<g id="svg" class="st0">
</g>
<g id="tiff" class="st0">
</g>
<g id="psd" class="st0">
</g>
<g id="mp4" class="st0">
</g>
<g id="m4v" class="st0">
</g>
<g id="doc" class="st0">
</g>
<g id="rtf" class="st0">
</g>
<g id="xls" class="st0">
</g>
<g id="ott" class="st0">
	<text transform="matrix(1 0 0 1 814.7651 42.375)" class="st1"><tspan x="0" y="0" class="st2 st6 st7">O</tspan><tspan x="7.567" y="0" class="st2 st6 st7">TT</tspan></text>
</g>
<g id="odt" class="st0">
</g>
<g id="txt" class="st0">
</g>
<g id="docx" class="st0">
</g>
<g id="ppt" class="st0">
</g>
<g id="xlsx" class="st0">
</g>
<g id="ods" class="st0">
</g>
<g id="jpg" class="st0">
</g>
<g id="png" class="st0">
</g>
<g id="ods_1_" class="st0">
</g>
<g id="po" class="st0">
</g>
<g id="flv_copy">
</g>
<g id="mov_copy">
</g>
<g id="pdf_copy">
</g>
<g id="svg_copy">
</g>
<g id="tiff_copy">
</g>
<g id="psd_copy">
</g>
<g id="mp4_copy">
</g>
<g id="m4v_copy">
</g>
<g id="doc_copy">
</g>
<g id="rtf_copy">
</g>
<g id="xls_copy">
</g>
<g id="ott_copy">
	<g>
		<path class="st2" d="M815.35,37.832c0-1.621,0.279-2.846,0.84-3.676c0.562-0.83,1.39-1.244,2.486-1.244
			c1.1,0,1.93,0.414,2.49,1.244c0.562,0.83,0.842,2.055,0.842,3.676c0,1.616-0.28,2.839-0.842,3.668
			c-0.561,0.83-1.391,1.244-2.49,1.244c-1.097,0-1.925-0.414-2.486-1.244C815.629,40.671,815.35,39.448,815.35,37.832z
			 M818.676,34.594c-0.479,0-0.828,0.256-1.048,0.766s-0.33,1.334-0.33,2.473c0,1.134,0.11,1.955,0.33,2.466
			c0.22,0.51,0.569,0.765,1.048,0.765c0.482,0,0.833-0.255,1.053-0.765c0.221-0.511,0.33-1.332,0.33-2.466
			c0-1.139-0.109-1.963-0.33-2.473C819.509,34.85,819.158,34.594,818.676,34.594z"/>
		<path class="st2" d="M827.182,42.561h-1.873v-7.84h-2.405v-1.637h6.685v1.637h-2.406V42.561z"/>
		<path class="st2" d="M835.008,42.561h-1.872v-7.84h-2.405v-1.637h6.684v1.637h-2.406V42.561z"/>
	</g>
</g>
<g id="odt_copy">
</g>
<g id="txt_copy">
</g>
<g id="docx_copy">
</g>
<g id="ppt_copy">
</g>
<g id="xlsx_copy">
</g>
<g id="ods_copy_2">
</g>
<g id="jpg_copy">
</g>
<g id="png_copy">
</g>
<g id="ods_copy">
</g>
<g id="po_copy">
</g>
</svg>
