<?xml version="1.0" encoding="utf-8"?>
<!-- Generator: Adobe Illustrator 17.0.0, SVG Export Plug-In . SVG Version: 6.00 Build 0)  -->
<!DOCTYPE svg PUBLIC "-//W3C//DTD SVG 1.1//EN" "http://www.w3.org/Graphics/SVG/1.1/DTD/svg11.dtd">
<svg version="1.1" xmlns="http://www.w3.org/2000/svg" xmlns:xlink="http://www.w3.org/1999/xlink" x="0px" y="0px" width="60px"
	 height="60px" viewBox="1440.5 0.5 60 60" style="enable-background:new 1440.5 0.5 60 60;" xml:space="preserve">
<style type="text/css">
	.st0{display:none;}
	.st1{display:inline;}
	.st2{fill:#FFFFFF;}
	.st3{fill:#787878;}
	.st4{fill:#333333;}
	.st5{fill:#BEBEBE;}
	.st6{display:inline;fill:#FFFFFF;}
	.st7{font-family:'Menlo-Bold';}
	.st8{font-size:13;}
</style>
<g id="Base_000000" class="st0">
	<g class="st1">
		<path d="M1482.875,28.875h-33c-0.825,0-1.5,0.675-1.5,1.5v15c0,0.825,0.675,1.5,1.5,1.5h33c0.827,0,1.5-0.675,1.5-1.5v-15
			C1484.375,29.55,1483.702,28.875,1482.875,28.875z"/>
		<path d="M1488.875,17.754l-9.879-9.879c-0.867-0.87-2.391-1.5-3.621-1.5h-16.5c-2.481,0-4.5,2.019-4.5,4.5v15
			c0,0.829,0.671,1.5,1.5,1.5s1.5-0.67,1.5-1.5v-15c0-0.826,0.672-1.5,1.5-1.5h13.5c1.657,0,3,1.344,3,3V18
			c0,1.857,1.521,3.375,3.375,3.375h5.625c1.657,0,3,1.344,3,3v25.5c0,0.826-0.671,1.5-1.5,1.5h-27c-0.828,0-1.5-0.674-1.5-1.5
			c0-0.829-0.671-1.5-1.5-1.5s-1.5,0.671-1.5,1.5c0,2.481,2.019,4.5,4.5,4.5h27c2.481,0,4.5-2.019,4.5-4.5v-28.5
			C1490.375,20.146,1489.745,18.622,1488.875,17.754z"/>
	</g>
</g>
<g id="Base_787878" class="st0">
	<g class="st1">
		<path class="st3" d="M1482.875,28.875h-33c-0.825,0-1.5,0.675-1.5,1.5v15c0,0.825,0.675,1.5,1.5,1.5h33c0.827,0,1.5-0.675,1.5-1.5
			v-15C1484.375,29.55,1483.702,28.875,1482.875,28.875z"/>
		<path class="st3" d="M1488.875,17.754l-9.879-9.879c-0.867-0.87-2.391-1.5-3.621-1.5h-16.5c-2.481,0-4.5,2.019-4.5,4.5v15
			c0,0.829,0.671,1.5,1.5,1.5s1.5-0.67,1.5-1.5v-15c0-0.826,0.672-1.5,1.5-1.5h13.5c1.657,0,3,1.344,3,3V18
			c0,1.857,1.521,3.375,3.375,3.375h5.625c1.657,0,3,1.344,3,3v25.5c0,0.826-0.671,1.5-1.5,1.5h-27c-0.828,0-1.5-0.674-1.5-1.5
			c0-0.829-0.671-1.5-1.5-1.5s-1.5,0.671-1.5,1.5c0,2.481,2.019,4.5,4.5,4.5h27c2.481,0,4.5-2.019,4.5-4.5v-28.5
			C1490.375,20.146,1489.745,18.622,1488.875,17.754z"/>
	</g>
</g>
<g id="Base_333333" class="st0">
	<g class="st1">
		<path class="st4" d="M1482.875,28.875h-33c-0.825,0-1.5,0.675-1.5,1.5v15c0,0.825,0.675,1.5,1.5,1.5h33c0.827,0,1.5-0.675,1.5-1.5
			v-15C1484.375,29.55,1483.702,28.875,1482.875,28.875z"/>
		<path class="st4" d="M1488.875,17.754l-9.879-9.879c-0.867-0.87-2.391-1.5-3.621-1.5h-16.5c-2.481,0-4.5,2.019-4.5,4.5v15
			c0,0.829,0.671,1.5,1.5,1.5s1.5-0.67,1.5-1.5v-15c0-0.826,0.672-1.5,1.5-1.5h13.5c1.657,0,3,1.344,3,3V18
			c0,1.857,1.521,3.375,3.375,3.375h5.625c1.657,0,3,1.344,3,3v25.5c0,0.826-0.671,1.5-1.5,1.5h-27c-0.828,0-1.5-0.674-1.5-1.5
			c0-0.829-0.671-1.5-1.5-1.5s-1.5,0.671-1.5,1.5c0,2.481,2.019,4.5,4.5,4.5h27c2.481,0,4.5-2.019,4.5-4.5v-28.5
			C1490.375,20.146,1489.745,18.622,1488.875,17.754z"/>
	</g>
</g>
<g id="Base_bebebe">
	<g>
		<path class="st5" d="M1482.875,28.875h-33c-0.825,0-1.5,0.675-1.5,1.5v15c0,0.825,0.675,1.5,1.5,1.5h33c0.827,0,1.5-0.675,1.5-1.5
			v-15C1484.375,29.55,1483.702,28.875,1482.875,28.875z"/>
		<path class="st5" d="M1488.875,17.754l-9.879-9.879c-0.867-0.87-2.391-1.5-3.621-1.5h-16.5c-2.481,0-4.5,2.019-4.5,4.5v15
			c0,0.829,0.671,1.5,1.5,1.5s1.5-0.67,1.5-1.5v-15c0-0.826,0.672-1.5,1.5-1.5h13.5c1.657,0,3,1.344,3,3V18
			c0,1.857,1.521,3.375,3.375,3.375h5.625c1.657,0,3,1.344,3,3v25.5c0,0.826-0.671,1.5-1.5,1.5h-27c-0.828,0-1.5-0.674-1.5-1.5
			c0-0.829-0.671-1.5-1.5-1.5s-1.5,0.671-1.5,1.5c0,2.481,2.019,4.5,4.5,4.5h27c2.481,0,4.5-2.019,4.5-4.5v-28.5
			C1490.375,20.146,1489.745,18.622,1488.875,17.754z"/>
	</g>
</g>
<g id="flv" class="st0">
</g>
<g id="mov" class="st0">
</g>
<g id="pdf" class="st0">
</g>
<g id="svg" class="st0">
</g>
<g id="tiff" class="st0">
</g>
<g id="psd" class="st0">
</g>
<g id="mp4" class="st0">
</g>
<g id="m4v" class="st0">
</g>
<g id="doc" class="st0">
</g>
<g id="rtf" class="st0">
</g>
<g id="xls" class="st0">
</g>
<g id="ott" class="st0">
</g>
<g id="odt" class="st0">
</g>
<g id="txt" class="st0">
</g>
<g id="docx" class="st0">
</g>
<g id="ppt" class="st0">
</g>
<g id="xlsx" class="st0">
</g>
<g id="ods" class="st0">
</g>
<g id="jpg" class="st0">
</g>
<g id="png" class="st0">
	<text transform="matrix(1 0 0 1 1455.1348 42.875)" class="st6 st7 st8">PNG</text>
</g>
<g id="ods_1_" class="st0">
</g>
<g id="po" class="st0">
</g>
<g id="flv_copy">
</g>
<g id="mov_copy">
</g>
<g id="pdf_copy">
</g>
<g id="svg_copy">
</g>
<g id="tiff_copy">
</g>
<g id="psd_copy">
</g>
<g id="mp4_copy">
</g>
<g id="m4v_copy">
</g>
<g id="doc_copy">
</g>
<g id="rtf_copy">
</g>
<g id="xls_copy">
</g>
<g id="ott_copy">
</g>
<g id="odt_copy">
</g>
<g id="txt_copy">
</g>
<g id="docx_copy">
</g>
<g id="ppt_copy">
</g>
<g id="xlsx_copy">
</g>
<g id="ods_copy_2">
</g>
<g id="jpg_copy">
</g>
<g id="png_copy">
	<g>
		<path class="st2" d="M1456.163,33.084h2.571c1.307,0,2.248,0.232,2.821,0.697c0.573,0.466,0.86,1.221,0.86,2.267
			s-0.287,1.801-0.86,2.267c-0.573,0.465-1.515,0.697-2.821,0.697h-0.699v3.549h-1.872V33.084z M1458.035,34.658v2.779h0.769
			c0.614,0,1.044-0.104,1.292-0.311c0.247-0.207,0.371-0.566,0.371-1.079s-0.124-0.872-0.371-1.079
			c-0.248-0.207-0.678-0.311-1.292-0.311H1458.035z"/>
		<path class="st2" d="M1463.717,33.084h2.012l2.641,6.887v-6.887h1.65v9.477h-1.999l-2.653-6.887v6.887h-1.65V33.084z"/>
		<path class="st2" d="M1476.323,40.847v-1.81h-1.282v-1.574h2.92v4.342c-0.359,0.31-0.756,0.543-1.19,0.702
			c-0.434,0.158-0.897,0.237-1.394,0.237c-1.227,0-2.175-0.426-2.844-1.278c-0.668-0.853-1.002-2.064-1.002-3.634
			c0-1.596,0.337-2.814,1.012-3.656c0.676-0.843,1.649-1.264,2.924-1.264c0.381,0,0.755,0.054,1.123,0.162
			c0.368,0.107,0.713,0.264,1.035,0.467v2.075c-0.263-0.339-0.564-0.594-0.905-0.765c-0.341-0.172-0.714-0.258-1.12-0.258
			c-0.711,0-1.242,0.268-1.594,0.804c-0.351,0.535-0.526,1.347-0.526,2.435c0,1.053,0.169,1.855,0.508,2.405
			s0.831,0.825,1.479,0.825c0.194,0,0.363-0.018,0.508-0.054C1476.118,40.973,1476.234,40.918,1476.323,40.847z"/>
	</g>
</g>
<g id="ods_copy">
</g>
<g id="po_copy">
</g>
</svg>
