<?xml version="1.0" encoding="utf-8"?>
<!-- Generator: Adobe Illustrator 17.0.0, SVG Export Plug-In . SVG Version: 6.00 Build 0)  -->
<!DOCTYPE svg PUBLIC "-//W3C//DTD SVG 1.1//EN" "http://www.w3.org/Graphics/SVG/1.1/DTD/svg11.dtd">
<svg version="1.1" xmlns="http://www.w3.org/2000/svg" xmlns:xlink="http://www.w3.org/1999/xlink" x="0px" y="0px" width="60px"
	 height="60px" viewBox="1680.5 0.5 60 60" style="enable-background:new 1680.5 0.5 60 60;" xml:space="preserve">
<style type="text/css">
	.st0{display:none;}
	.st1{display:inline;}
	.st2{fill:#FFFFFF;}
	.st3{fill:#787878;}
	.st4{fill:#333333;}
	.st5{fill:#BEBEBE;}
	.st6{display:inline;fill:#FFFFFF;}
	.st7{font-family:'Menlo-Bold';}
	.st8{font-size:13;}
</style>
<g id="Base_000000" class="st0">
	<g class="st1">
		<path d="M1722.875,28.875h-33c-0.825,0-1.5,0.675-1.5,1.5v15c0,0.825,0.675,1.5,1.5,1.5h33c0.827,0,1.5-0.675,1.5-1.5v-15
			C1724.375,29.55,1723.702,28.875,1722.875,28.875z"/>
		<path d="M1728.875,17.754l-9.879-9.879c-0.867-0.87-2.391-1.5-3.621-1.5h-16.5c-2.481,0-4.5,2.019-4.5,4.5v15
			c0,0.829,0.671,1.5,1.5,1.5s1.5-0.67,1.5-1.5v-15c0-0.826,0.672-1.5,1.5-1.5h13.5c1.657,0,3,1.344,3,3V18
			c0,1.857,1.521,3.375,3.375,3.375h5.625c1.657,0,3,1.344,3,3v25.5c0,0.826-0.671,1.5-1.5,1.5h-27c-0.828,0-1.5-0.674-1.5-1.5
			c0-0.829-0.671-1.5-1.5-1.5s-1.5,0.671-1.5,1.5c0,2.481,2.019,4.5,4.5,4.5h27c2.481,0,4.5-2.019,4.5-4.5v-28.5
			C1730.375,20.146,1729.745,18.622,1728.875,17.754z"/>
	</g>
</g>
<g id="Base_787878" class="st0">
	<g class="st1">
		<path class="st3" d="M1722.875,28.875h-33c-0.825,0-1.5,0.675-1.5,1.5v15c0,0.825,0.675,1.5,1.5,1.5h33c0.827,0,1.5-0.675,1.5-1.5
			v-15C1724.375,29.55,1723.702,28.875,1722.875,28.875z"/>
		<path class="st3" d="M1728.875,17.754l-9.879-9.879c-0.867-0.87-2.391-1.5-3.621-1.5h-16.5c-2.481,0-4.5,2.019-4.5,4.5v15
			c0,0.829,0.671,1.5,1.5,1.5s1.5-0.67,1.5-1.5v-15c0-0.826,0.672-1.5,1.5-1.5h13.5c1.657,0,3,1.344,3,3V18
			c0,1.857,1.521,3.375,3.375,3.375h5.625c1.657,0,3,1.344,3,3v25.5c0,0.826-0.671,1.5-1.5,1.5h-27c-0.828,0-1.5-0.674-1.5-1.5
			c0-0.829-0.671-1.5-1.5-1.5s-1.5,0.671-1.5,1.5c0,2.481,2.019,4.5,4.5,4.5h27c2.481,0,4.5-2.019,4.5-4.5v-28.5
			C1730.375,20.146,1729.745,18.622,1728.875,17.754z"/>
	</g>
</g>
<g id="Base_333333" class="st0">
	<g class="st1">
		<path class="st4" d="M1722.875,28.875h-33c-0.825,0-1.5,0.675-1.5,1.5v15c0,0.825,0.675,1.5,1.5,1.5h33c0.827,0,1.5-0.675,1.5-1.5
			v-15C1724.375,29.55,1723.702,28.875,1722.875,28.875z"/>
		<path class="st4" d="M1728.875,17.754l-9.879-9.879c-0.867-0.87-2.391-1.5-3.621-1.5h-16.5c-2.481,0-4.5,2.019-4.5,4.5v15
			c0,0.829,0.671,1.5,1.5,1.5s1.5-0.67,1.5-1.5v-15c0-0.826,0.672-1.5,1.5-1.5h13.5c1.657,0,3,1.344,3,3V18
			c0,1.857,1.521,3.375,3.375,3.375h5.625c1.657,0,3,1.344,3,3v25.5c0,0.826-0.671,1.5-1.5,1.5h-27c-0.828,0-1.5-0.674-1.5-1.5
			c0-0.829-0.671-1.5-1.5-1.5s-1.5,0.671-1.5,1.5c0,2.481,2.019,4.5,4.5,4.5h27c2.481,0,4.5-2.019,4.5-4.5v-28.5
			C1730.375,20.146,1729.745,18.622,1728.875,17.754z"/>
	</g>
</g>
<g id="Base_bebebe">
	<g>
		<path class="st5" d="M1722.875,28.875h-33c-0.825,0-1.5,0.675-1.5,1.5v15c0,0.825,0.675,1.5,1.5,1.5h33c0.827,0,1.5-0.675,1.5-1.5
			v-15C1724.375,29.55,1723.702,28.875,1722.875,28.875z"/>
		<path class="st5" d="M1728.875,17.754l-9.879-9.879c-0.867-0.87-2.391-1.5-3.621-1.5h-16.5c-2.481,0-4.5,2.019-4.5,4.5v15
			c0,0.829,0.671,1.5,1.5,1.5s1.5-0.67,1.5-1.5v-15c0-0.826,0.672-1.5,1.5-1.5h13.5c1.657,0,3,1.344,3,3V18
			c0,1.857,1.521,3.375,3.375,3.375h5.625c1.657,0,3,1.344,3,3v25.5c0,0.826-0.671,1.5-1.5,1.5h-27c-0.828,0-1.5-0.674-1.5-1.5
			c0-0.829-0.671-1.5-1.5-1.5s-1.5,0.671-1.5,1.5c0,2.481,2.019,4.5,4.5,4.5h27c2.481,0,4.5-2.019,4.5-4.5v-28.5
			C1730.375,20.146,1729.745,18.622,1728.875,17.754z"/>
	</g>
</g>
<g id="flv" class="st0">
</g>
<g id="mov" class="st0">
</g>
<g id="pdf" class="st0">
</g>
<g id="svg" class="st0">
</g>
<g id="tiff" class="st0">
</g>
<g id="psd" class="st0">
</g>
<g id="mp4" class="st0">
</g>
<g id="m4v" class="st0">
</g>
<g id="doc" class="st0">
</g>
<g id="rtf" class="st0">
</g>
<g id="xls" class="st0">
</g>
<g id="ott" class="st0">
</g>
<g id="odt" class="st0">
</g>
<g id="txt" class="st0">
</g>
<g id="docx" class="st0">
</g>
<g id="ppt" class="st0">
</g>
<g id="xlsx" class="st0">
</g>
<g id="ods" class="st0">
</g>
<g id="jpg" class="st0">
</g>
<g id="png" class="st0">
</g>
<g id="ods_1_" class="st0">
</g>
<g id="po" class="st0">
	<text transform="matrix(1 0 0 1 1699.0483 42.875)" class="st6 st7 st8">PO</text>
</g>
<g id="flv_copy">
</g>
<g id="mov_copy">
</g>
<g id="pdf_copy">
</g>
<g id="svg_copy">
</g>
<g id="tiff_copy">
</g>
<g id="psd_copy">
</g>
<g id="mp4_copy">
</g>
<g id="m4v_copy">
</g>
<g id="doc_copy">
</g>
<g id="rtf_copy">
</g>
<g id="xls_copy">
</g>
<g id="ott_copy">
</g>
<g id="odt_copy">
</g>
<g id="txt_copy">
</g>
<g id="docx_copy">
</g>
<g id="ppt_copy">
</g>
<g id="xlsx_copy">
</g>
<g id="ods_copy_2">
</g>
<g id="jpg_copy">
</g>
<g id="png_copy">
</g>
<g id="ods_copy">
</g>
<g id="po_copy">
	<g>
		<path class="st2" d="M1700.076,33.084h2.571c1.308,0,2.248,0.232,2.821,0.697c0.574,0.466,0.86,1.221,0.86,2.267
			s-0.286,1.801-0.86,2.267c-0.573,0.465-1.514,0.697-2.821,0.697h-0.698v3.549h-1.873V33.084z M1701.949,34.658v2.779h0.768
			c0.614,0,1.045-0.104,1.293-0.311c0.246-0.207,0.371-0.566,0.371-1.079s-0.125-0.872-0.371-1.079
			c-0.248-0.207-0.679-0.311-1.293-0.311H1701.949z"/>
		<path class="st2" d="M1707.459,37.832c0-1.621,0.28-2.846,0.841-3.676c0.562-0.83,1.39-1.244,2.485-1.244
			c1.1,0,1.931,0.414,2.491,1.244c0.562,0.83,0.841,2.055,0.841,3.676c0,1.616-0.279,2.839-0.841,3.668
			c-0.561,0.83-1.392,1.244-2.491,1.244c-1.096,0-1.924-0.414-2.485-1.244C1707.739,40.671,1707.459,39.448,1707.459,37.832z
			 M1710.785,34.594c-0.479,0-0.827,0.256-1.047,0.766c-0.221,0.51-0.33,1.334-0.33,2.473c0,1.134,0.109,1.955,0.33,2.466
			c0.22,0.51,0.568,0.765,1.047,0.765c0.482,0,0.834-0.255,1.054-0.765c0.22-0.511,0.33-1.332,0.33-2.466
			c0-1.139-0.11-1.963-0.33-2.473S1711.268,34.594,1710.785,34.594z"/>
	</g>
</g>
</svg>
