<?xml version="1.0" encoding="utf-8"?>
<!-- Generator: Adobe Illustrator 17.0.0, SVG Export Plug-In . SVG Version: 6.00 Build 0)  -->
<!DOCTYPE svg PUBLIC "-//W3C//DTD SVG 1.1//EN" "http://www.w3.org/Graphics/SVG/1.1/DTD/svg11.dtd">
<svg version="1.1" xmlns="http://www.w3.org/2000/svg" xmlns:xlink="http://www.w3.org/1999/xlink" x="0px" y="0px" width="60px"
	 height="60px" viewBox="1120.5 0.5 60 60" style="enable-background:new 1120.5 0.5 60 60;" xml:space="preserve">
<style type="text/css">
	.st0{display:none;}
	.st1{display:inline;}
	.st2{fill:#FFFFFF;}
	.st3{fill:#787878;}
	.st4{fill:#333333;}
	.st5{fill:#BEBEBE;}
	.st6{display:inline;fill:#FFFFFF;}
	.st7{font-family:'Menlo-Bold';}
	.st8{font-size:13;}
</style>
<g id="Base_000000" class="st0">
	<g class="st1">
		<path d="M1162.875,28.875h-33c-0.825,0-1.5,0.675-1.5,1.5v15c0,0.825,0.675,1.5,1.5,1.5h33c0.827,0,1.5-0.675,1.5-1.5v-15
			C1164.375,29.55,1163.702,28.875,1162.875,28.875z"/>
		<path d="M1168.875,17.754l-9.879-9.879c-0.867-0.87-2.391-1.5-3.621-1.5h-16.5c-2.481,0-4.5,2.019-4.5,4.5v15
			c0,0.829,0.671,1.5,1.5,1.5s1.5-0.67,1.5-1.5v-15c0-0.826,0.672-1.5,1.5-1.5h13.5c1.657,0,3,1.344,3,3V18
			c0,1.857,1.521,3.375,3.375,3.375h5.625c1.657,0,3,1.344,3,3v25.5c0,0.826-0.671,1.5-1.5,1.5h-27c-0.828,0-1.5-0.674-1.5-1.5
			c0-0.829-0.671-1.5-1.5-1.5s-1.5,0.671-1.5,1.5c0,2.481,2.019,4.5,4.5,4.5h27c2.481,0,4.5-2.019,4.5-4.5v-28.5
			C1170.375,20.146,1169.745,18.622,1168.875,17.754z"/>
	</g>
</g>
<g id="Base_787878" class="st0">
	<g class="st1">
		<path class="st3" d="M1162.875,28.875h-33c-0.825,0-1.5,0.675-1.5,1.5v15c0,0.825,0.675,1.5,1.5,1.5h33c0.827,0,1.5-0.675,1.5-1.5
			v-15C1164.375,29.55,1163.702,28.875,1162.875,28.875z"/>
		<path class="st3" d="M1168.875,17.754l-9.879-9.879c-0.867-0.87-2.391-1.5-3.621-1.5h-16.5c-2.481,0-4.5,2.019-4.5,4.5v15
			c0,0.829,0.671,1.5,1.5,1.5s1.5-0.67,1.5-1.5v-15c0-0.826,0.672-1.5,1.5-1.5h13.5c1.657,0,3,1.344,3,3V18
			c0,1.857,1.521,3.375,3.375,3.375h5.625c1.657,0,3,1.344,3,3v25.5c0,0.826-0.671,1.5-1.5,1.5h-27c-0.828,0-1.5-0.674-1.5-1.5
			c0-0.829-0.671-1.5-1.5-1.5s-1.5,0.671-1.5,1.5c0,2.481,2.019,4.5,4.5,4.5h27c2.481,0,4.5-2.019,4.5-4.5v-28.5
			C1170.375,20.146,1169.745,18.622,1168.875,17.754z"/>
	</g>
</g>
<g id="Base_333333" class="st0">
	<g class="st1">
		<path class="st4" d="M1162.875,28.875h-33c-0.825,0-1.5,0.675-1.5,1.5v15c0,0.825,0.675,1.5,1.5,1.5h33c0.827,0,1.5-0.675,1.5-1.5
			v-15C1164.375,29.55,1163.702,28.875,1162.875,28.875z"/>
		<path class="st4" d="M1168.875,17.754l-9.879-9.879c-0.867-0.87-2.391-1.5-3.621-1.5h-16.5c-2.481,0-4.5,2.019-4.5,4.5v15
			c0,0.829,0.671,1.5,1.5,1.5s1.5-0.67,1.5-1.5v-15c0-0.826,0.672-1.5,1.5-1.5h13.5c1.657,0,3,1.344,3,3V18
			c0,1.857,1.521,3.375,3.375,3.375h5.625c1.657,0,3,1.344,3,3v25.5c0,0.826-0.671,1.5-1.5,1.5h-27c-0.828,0-1.5-0.674-1.5-1.5
			c0-0.829-0.671-1.5-1.5-1.5s-1.5,0.671-1.5,1.5c0,2.481,2.019,4.5,4.5,4.5h27c2.481,0,4.5-2.019,4.5-4.5v-28.5
			C1170.375,20.146,1169.745,18.622,1168.875,17.754z"/>
	</g>
</g>
<g id="Base_bebebe">
	<g>
		<path class="st5" d="M1162.875,28.875h-33c-0.825,0-1.5,0.675-1.5,1.5v15c0,0.825,0.675,1.5,1.5,1.5h33c0.827,0,1.5-0.675,1.5-1.5
			v-15C1164.375,29.55,1163.702,28.875,1162.875,28.875z"/>
		<path class="st5" d="M1168.875,17.754l-9.879-9.879c-0.867-0.87-2.391-1.5-3.621-1.5h-16.5c-2.481,0-4.5,2.019-4.5,4.5v15
			c0,0.829,0.671,1.5,1.5,1.5s1.5-0.67,1.5-1.5v-15c0-0.826,0.672-1.5,1.5-1.5h13.5c1.657,0,3,1.344,3,3V18
			c0,1.857,1.521,3.375,3.375,3.375h5.625c1.657,0,3,1.344,3,3v25.5c0,0.826-0.671,1.5-1.5,1.5h-27c-0.828,0-1.5-0.674-1.5-1.5
			c0-0.829-0.671-1.5-1.5-1.5s-1.5,0.671-1.5,1.5c0,2.481,2.019,4.5,4.5,4.5h27c2.481,0,4.5-2.019,4.5-4.5v-28.5
			C1170.375,20.146,1169.745,18.622,1168.875,17.754z"/>
	</g>
</g>
<g id="flv" class="st0">
</g>
<g id="mov" class="st0">
</g>
<g id="pdf" class="st0">
</g>
<g id="svg" class="st0">
</g>
<g id="tiff" class="st0">
</g>
<g id="psd" class="st0">
</g>
<g id="mp4" class="st0">
</g>
<g id="m4v" class="st0">
</g>
<g id="doc" class="st0">
</g>
<g id="rtf" class="st0">
</g>
<g id="xls" class="st0">
</g>
<g id="ott" class="st0">
</g>
<g id="odt" class="st0">
</g>
<g id="txt" class="st0">
</g>
<g id="docx" class="st0">
</g>
<g id="ppt" class="st0">
	<text transform="matrix(1 0 0 1 1134.6348 42.375)" class="st6 st7 st8">PPT</text>
</g>
<g id="xlsx" class="st0">
</g>
<g id="ods" class="st0">
</g>
<g id="jpg" class="st0">
</g>
<g id="png" class="st0">
</g>
<g id="ods_1_" class="st0">
</g>
<g id="po" class="st0">
</g>
<g id="flv_copy">
</g>
<g id="mov_copy">
</g>
<g id="pdf_copy">
</g>
<g id="svg_copy">
</g>
<g id="tiff_copy">
</g>
<g id="psd_copy">
</g>
<g id="mp4_copy">
</g>
<g id="m4v_copy">
</g>
<g id="doc_copy">
</g>
<g id="rtf_copy">
</g>
<g id="xls_copy">
</g>
<g id="ott_copy">
</g>
<g id="odt_copy">
</g>
<g id="txt_copy">
</g>
<g id="docx_copy">
</g>
<g id="ppt_copy">
	<g>
		<path class="st2" d="M1135.663,33.09h2.571c1.307,0,2.248,0.232,2.821,0.697c0.573,0.466,0.86,1.221,0.86,2.267
			s-0.287,1.801-0.86,2.267c-0.573,0.465-1.515,0.697-2.821,0.697h-0.699v3.549h-1.872V33.09z M1137.535,34.664v2.779h0.769
			c0.614,0,1.044-0.104,1.292-0.311c0.247-0.207,0.371-0.566,0.371-1.079s-0.124-0.872-0.371-1.079
			c-0.248-0.207-0.678-0.311-1.292-0.311H1137.535z"/>
		<path class="st2" d="M1143.49,33.09h2.57c1.308,0,2.248,0.232,2.822,0.697c0.572,0.466,0.859,1.221,0.859,2.267
			s-0.287,1.801-0.859,2.267c-0.574,0.465-1.515,0.697-2.822,0.697h-0.698v3.549h-1.872V33.09z M1145.362,34.664v2.779h0.769
			c0.613,0,1.043-0.104,1.291-0.311s0.371-0.566,0.371-1.079s-0.123-0.872-0.371-1.079s-0.678-0.311-1.291-0.311H1145.362z"/>
		<path class="st2" d="M1155.138,42.566h-1.872v-7.84h-2.406V33.09h6.684v1.637h-2.405V42.566z"/>
	</g>
</g>
<g id="xlsx_copy">
</g>
<g id="ods_copy_2">
</g>
<g id="jpg_copy">
</g>
<g id="png_copy">
</g>
<g id="ods_copy">
</g>
<g id="po_copy">
</g>
</svg>
