<?xml version="1.0" encoding="utf-8"?>
<!-- Generator: Adobe Illustrator 17.0.0, SVG Export Plug-In . SVG Version: 6.00 Build 0)  -->
<!DOCTYPE svg PUBLIC "-//W3C//DTD SVG 1.1//EN" "http://www.w3.org/Graphics/SVG/1.1/DTD/svg11.dtd">
<svg version="1.1" xmlns="http://www.w3.org/2000/svg" xmlns:xlink="http://www.w3.org/1999/xlink" x="0px" y="0px" width="60px"
	 height="60px" viewBox="400.5 0.5 60 60" style="enable-background:new 400.5 0.5 60 60;" xml:space="preserve">
<style type="text/css">
	.st0{display:none;}
	.st1{display:inline;}
	.st2{fill:#FFFFFF;}
	.st3{fill:#787878;}
	.st4{fill:#333333;}
	.st5{fill:#BEBEBE;}
	.st6{font-family:'Menlo-Bold';}
	.st7{font-size:13;}
</style>
<g id="Base_000000" class="st0">
	<g class="st1">
		<path d="M442.875,28.875h-33c-0.825,0-1.5,0.675-1.5,1.5v15c0,0.825,0.675,1.5,1.5,1.5h33c0.827,0,1.5-0.675,1.5-1.5v-15
			C444.375,29.55,443.702,28.875,442.875,28.875z"/>
		<path d="M448.875,17.754l-9.879-9.879c-0.867-0.87-2.391-1.5-3.621-1.5h-16.5c-2.481,0-4.5,2.019-4.5,4.5v15
			c0,0.829,0.671,1.5,1.5,1.5s1.5-0.67,1.5-1.5v-15c0-0.826,0.672-1.5,1.5-1.5h13.5c1.658,0,3,1.344,3,3V18
			c0,1.857,1.521,3.375,3.375,3.375h5.625c1.658,0,3,1.344,3,3v25.5c0,0.826-0.671,1.5-1.5,1.5h-27c-0.828,0-1.5-0.674-1.5-1.5
			c0-0.829-0.671-1.5-1.5-1.5s-1.5,0.671-1.5,1.5c0,2.481,2.019,4.5,4.5,4.5h27c2.481,0,4.5-2.019,4.5-4.5v-28.5
			C450.375,20.146,449.745,18.622,448.875,17.754z"/>
	</g>
</g>
<g id="Base_787878" class="st0">
	<g class="st1">
		<path class="st3" d="M442.875,28.875h-33c-0.825,0-1.5,0.675-1.5,1.5v15c0,0.825,0.675,1.5,1.5,1.5h33c0.827,0,1.5-0.675,1.5-1.5
			v-15C444.375,29.55,443.702,28.875,442.875,28.875z"/>
		<path class="st3" d="M448.875,17.754l-9.879-9.879c-0.867-0.87-2.391-1.5-3.621-1.5h-16.5c-2.481,0-4.5,2.019-4.5,4.5v15
			c0,0.829,0.671,1.5,1.5,1.5s1.5-0.67,1.5-1.5v-15c0-0.826,0.672-1.5,1.5-1.5h13.5c1.658,0,3,1.344,3,3V18
			c0,1.857,1.521,3.375,3.375,3.375h5.625c1.658,0,3,1.344,3,3v25.5c0,0.826-0.671,1.5-1.5,1.5h-27c-0.828,0-1.5-0.674-1.5-1.5
			c0-0.829-0.671-1.5-1.5-1.5s-1.5,0.671-1.5,1.5c0,2.481,2.019,4.5,4.5,4.5h27c2.481,0,4.5-2.019,4.5-4.5v-28.5
			C450.375,20.146,449.745,18.622,448.875,17.754z"/>
	</g>
</g>
<g id="Base_333333" class="st0">
	<g class="st1">
		<path class="st4" d="M442.875,28.875h-33c-0.825,0-1.5,0.675-1.5,1.5v15c0,0.825,0.675,1.5,1.5,1.5h33c0.827,0,1.5-0.675,1.5-1.5
			v-15C444.375,29.55,443.702,28.875,442.875,28.875z"/>
		<path class="st4" d="M448.875,17.754l-9.879-9.879c-0.867-0.87-2.391-1.5-3.621-1.5h-16.5c-2.481,0-4.5,2.019-4.5,4.5v15
			c0,0.829,0.671,1.5,1.5,1.5s1.5-0.67,1.5-1.5v-15c0-0.826,0.672-1.5,1.5-1.5h13.5c1.658,0,3,1.344,3,3V18
			c0,1.857,1.521,3.375,3.375,3.375h5.625c1.658,0,3,1.344,3,3v25.5c0,0.826-0.671,1.5-1.5,1.5h-27c-0.828,0-1.5-0.674-1.5-1.5
			c0-0.829-0.671-1.5-1.5-1.5s-1.5,0.671-1.5,1.5c0,2.481,2.019,4.5,4.5,4.5h27c2.481,0,4.5-2.019,4.5-4.5v-28.5
			C450.375,20.146,449.745,18.622,448.875,17.754z"/>
	</g>
</g>
<g id="Base_bebebe">
	<g>
		<path class="st5" d="M442.875,28.875h-33c-0.825,0-1.5,0.675-1.5,1.5v15c0,0.825,0.675,1.5,1.5,1.5h33c0.827,0,1.5-0.675,1.5-1.5
			v-15C444.375,29.55,443.702,28.875,442.875,28.875z"/>
		<path class="st5" d="M448.875,17.754l-9.879-9.879c-0.867-0.87-2.391-1.5-3.621-1.5h-16.5c-2.481,0-4.5,2.019-4.5,4.5v15
			c0,0.829,0.671,1.5,1.5,1.5s1.5-0.67,1.5-1.5v-15c0-0.826,0.672-1.5,1.5-1.5h13.5c1.658,0,3,1.344,3,3V18
			c0,1.857,1.521,3.375,3.375,3.375h5.625c1.658,0,3,1.344,3,3v25.5c0,0.826-0.671,1.5-1.5,1.5h-27c-0.828,0-1.5-0.674-1.5-1.5
			c0-0.829-0.671-1.5-1.5-1.5s-1.5,0.671-1.5,1.5c0,2.481,2.019,4.5,4.5,4.5h27c2.481,0,4.5-2.019,4.5-4.5v-28.5
			C450.375,20.146,449.745,18.622,448.875,17.754z"/>
	</g>
</g>
<g id="flv" class="st0">
</g>
<g id="mov" class="st0">
</g>
<g id="pdf" class="st0">
</g>
<g id="svg" class="st0">
</g>
<g id="tiff" class="st0">
</g>
<g id="psd" class="st0">
	<text transform="matrix(1 0 0 1 414.7651 42.375)" class="st1"><tspan x="0" y="0" class="st2 st6 st7">P</tspan><tspan x="7.567" y="0" class="st2 st6 st7">SD</tspan></text>
</g>
<g id="mp4" class="st0">
</g>
<g id="m4v" class="st0">
</g>
<g id="doc" class="st0">
</g>
<g id="rtf" class="st0">
</g>
<g id="xls" class="st0">
</g>
<g id="ott" class="st0">
</g>
<g id="odt" class="st0">
</g>
<g id="txt" class="st0">
</g>
<g id="docx" class="st0">
</g>
<g id="ppt" class="st0">
</g>
<g id="xlsx" class="st0">
</g>
<g id="ods" class="st0">
</g>
<g id="jpg" class="st0">
</g>
<g id="png" class="st0">
</g>
<g id="ods_1_" class="st0">
</g>
<g id="po" class="st0">
</g>
<g id="flv_copy">
</g>
<g id="mov_copy">
</g>
<g id="pdf_copy">
</g>
<g id="svg_copy">
</g>
<g id="tiff_copy">
</g>
<g id="psd_copy">
	<g>
		<path class="st2" d="M415.793,33.084h2.571c1.308,0,2.248,0.232,2.821,0.697c0.574,0.466,0.86,1.221,0.86,2.267
			s-0.286,1.801-0.86,2.267c-0.573,0.465-1.514,0.697-2.821,0.697h-0.698v3.549h-1.873V33.084z M417.666,34.658v2.779h0.768
			c0.614,0,1.045-0.104,1.293-0.311c0.246-0.207,0.371-0.566,0.371-1.079s-0.125-0.872-0.371-1.079
			c-0.248-0.207-0.679-0.311-1.293-0.311H417.666z"/>
		<path class="st2" d="M425.569,38.402c-0.944-0.359-1.583-0.736-1.917-1.133c-0.334-0.396-0.502-0.928-0.502-1.596
			c0-0.859,0.275-1.535,0.826-2.025c0.55-0.49,1.305-0.736,2.266-0.736c0.436,0,0.871,0.05,1.308,0.149
			c0.437,0.099,0.868,0.246,1.295,0.44v1.828c-0.401-0.283-0.811-0.499-1.226-0.646c-0.414-0.148-0.824-0.223-1.23-0.223
			c-0.453,0-0.801,0.091-1.041,0.273c-0.242,0.182-0.362,0.441-0.362,0.78c0,0.263,0.088,0.479,0.264,0.65
			c0.175,0.172,0.542,0.36,1.101,0.568l0.807,0.305c0.762,0.279,1.322,0.649,1.682,1.11c0.36,0.462,0.54,1.043,0.54,1.746
			c0,0.957-0.282,1.67-0.848,2.143c-0.564,0.472-1.419,0.707-2.562,0.707c-0.469,0-0.939-0.056-1.412-0.168
			c-0.472-0.111-0.928-0.277-1.367-0.498v-1.936c0.499,0.355,0.982,0.619,1.45,0.793s0.93,0.26,1.387,0.26
			c0.462,0,0.819-0.104,1.073-0.313c0.254-0.21,0.381-0.503,0.381-0.88c0-0.283-0.085-0.531-0.254-0.745
			c-0.17-0.214-0.415-0.382-0.736-0.505L425.569,38.402z"/>
		<path class="st2" d="M431.028,33.084h2.006c1.549,0,2.664,0.369,3.345,1.107c0.682,0.738,1.022,1.945,1.022,3.621
			c0,1.68-0.341,2.892-1.022,3.634c-0.681,0.743-1.796,1.114-3.345,1.114h-2.006V33.084z M432.9,34.771v6.101h0.508
			c0.736,0,1.262-0.231,1.574-0.695c0.313-0.463,0.471-1.251,0.471-2.364c0-1.104-0.157-1.887-0.471-2.349
			c-0.312-0.462-0.838-0.692-1.574-0.692H432.9z"/>
	</g>
</g>
<g id="mp4_copy">
</g>
<g id="m4v_copy">
</g>
<g id="doc_copy">
</g>
<g id="rtf_copy">
</g>
<g id="xls_copy">
</g>
<g id="ott_copy">
</g>
<g id="odt_copy">
</g>
<g id="txt_copy">
</g>
<g id="docx_copy">
</g>
<g id="ppt_copy">
</g>
<g id="xlsx_copy">
</g>
<g id="ods_copy_2">
</g>
<g id="jpg_copy">
</g>
<g id="png_copy">
</g>
<g id="ods_copy">
</g>
<g id="po_copy">
</g>
</svg>
