<?xml version="1.0" encoding="utf-8"?>
<!-- Generator: Adobe Illustrator 17.0.0, SVG Export Plug-In . SVG Version: 6.00 Build 0)  -->
<!DOCTYPE svg PUBLIC "-//W3C//DTD SVG 1.1//EN" "http://www.w3.org/Graphics/SVG/1.1/DTD/svg11.dtd">
<svg version="1.1" xmlns="http://www.w3.org/2000/svg" xmlns:xlink="http://www.w3.org/1999/xlink" x="0px" y="0px" width="60px"
	 height="60px" viewBox="240.5 0.5 60 60" style="enable-background:new 240.5 0.5 60 60;" xml:space="preserve">
<style type="text/css">
	.st0{display:none;}
	.st1{display:inline;}
	.st2{display:inline;fill:#FFFFFF;}
	.st3{font-family:'Menlo-Bold';}
	.st4{font-size:12;}
	.st5{fill:#787878;}
	.st6{fill:#333333;}
	.st7{fill:#BEBEBE;}
	.st8{fill:#FFFFFF;}
</style>
<g id="Base_000000" class="st0">
	<g class="st1">
		<path d="M282.875,28.875h-33c-0.825,0-1.5,0.675-1.5,1.5v15c0,0.825,0.675,1.5,1.5,1.5h33c0.827,0,1.5-0.675,1.5-1.5v-15
			C284.375,29.55,283.702,28.875,282.875,28.875z"/>
		<path d="M288.875,17.754l-9.879-9.879c-0.867-0.87-2.391-1.5-3.621-1.5h-16.5c-2.481,0-4.5,2.019-4.5,4.5v15
			c0,0.829,0.671,1.5,1.5,1.5s1.5-0.67,1.5-1.5v-15c0-0.826,0.672-1.5,1.5-1.5h13.5c1.658,0,3,1.344,3,3V18
			c0,1.857,1.521,3.375,3.375,3.375h5.625c1.658,0,3,1.344,3,3v25.5c0,0.826-0.671,1.5-1.5,1.5h-27c-0.828,0-1.5-0.674-1.5-1.5
			c0-0.829-0.671-1.5-1.5-1.5s-1.5,0.671-1.5,1.5c0,2.481,2.019,4.5,4.5,4.5h27c2.481,0,4.5-2.019,4.5-4.5v-28.5
			C290.375,20.146,289.745,18.622,288.875,17.754z"/>
	</g>
	<text transform="matrix(1 0 0 1 255.7783 41.875)" class="st2 st3 st4">SVG</text>
</g>
<g id="Base_787878" class="st0">
	<g class="st1">
		<path class="st5" d="M282.875,28.875h-33c-0.825,0-1.5,0.675-1.5,1.5v15c0,0.825,0.675,1.5,1.5,1.5h33c0.827,0,1.5-0.675,1.5-1.5
			v-15C284.375,29.55,283.702,28.875,282.875,28.875z"/>
		<path class="st5" d="M288.875,17.754l-9.879-9.879c-0.867-0.87-2.391-1.5-3.621-1.5h-16.5c-2.481,0-4.5,2.019-4.5,4.5v15
			c0,0.829,0.671,1.5,1.5,1.5s1.5-0.67,1.5-1.5v-15c0-0.826,0.672-1.5,1.5-1.5h13.5c1.658,0,3,1.344,3,3V18
			c0,1.857,1.521,3.375,3.375,3.375h5.625c1.658,0,3,1.344,3,3v25.5c0,0.826-0.671,1.5-1.5,1.5h-27c-0.828,0-1.5-0.674-1.5-1.5
			c0-0.829-0.671-1.5-1.5-1.5s-1.5,0.671-1.5,1.5c0,2.481,2.019,4.5,4.5,4.5h27c2.481,0,4.5-2.019,4.5-4.5v-28.5
			C290.375,20.146,289.745,18.622,288.875,17.754z"/>
	</g>
</g>
<g id="Base_333333" class="st0">
	<g class="st1">
		<path class="st6" d="M282.875,28.875h-33c-0.825,0-1.5,0.675-1.5,1.5v15c0,0.825,0.675,1.5,1.5,1.5h33c0.827,0,1.5-0.675,1.5-1.5
			v-15C284.375,29.55,283.702,28.875,282.875,28.875z"/>
		<path class="st6" d="M288.875,17.754l-9.879-9.879c-0.867-0.87-2.391-1.5-3.621-1.5h-16.5c-2.481,0-4.5,2.019-4.5,4.5v15
			c0,0.829,0.671,1.5,1.5,1.5s1.5-0.67,1.5-1.5v-15c0-0.826,0.672-1.5,1.5-1.5h13.5c1.658,0,3,1.344,3,3V18
			c0,1.857,1.521,3.375,3.375,3.375h5.625c1.658,0,3,1.344,3,3v25.5c0,0.826-0.671,1.5-1.5,1.5h-27c-0.828,0-1.5-0.674-1.5-1.5
			c0-0.829-0.671-1.5-1.5-1.5s-1.5,0.671-1.5,1.5c0,2.481,2.019,4.5,4.5,4.5h27c2.481,0,4.5-2.019,4.5-4.5v-28.5
			C290.375,20.146,289.745,18.622,288.875,17.754z"/>
	</g>
</g>
<g id="Base_bebebe">
	<g>
		<path class="st7" d="M282.875,28.875h-33c-0.825,0-1.5,0.675-1.5,1.5v15c0,0.825,0.675,1.5,1.5,1.5h33c0.827,0,1.5-0.675,1.5-1.5
			v-15C284.375,29.55,283.702,28.875,282.875,28.875z"/>
		<path class="st7" d="M288.875,17.754l-9.879-9.879c-0.867-0.87-2.391-1.5-3.621-1.5h-16.5c-2.481,0-4.5,2.019-4.5,4.5v15
			c0,0.829,0.671,1.5,1.5,1.5s1.5-0.67,1.5-1.5v-15c0-0.826,0.672-1.5,1.5-1.5h13.5c1.658,0,3,1.344,3,3V18
			c0,1.857,1.521,3.375,3.375,3.375h5.625c1.658,0,3,1.344,3,3v25.5c0,0.826-0.671,1.5-1.5,1.5h-27c-0.828,0-1.5-0.674-1.5-1.5
			c0-0.829-0.671-1.5-1.5-1.5s-1.5,0.671-1.5,1.5c0,2.481,2.019,4.5,4.5,4.5h27c2.481,0,4.5-2.019,4.5-4.5v-28.5
			C290.375,20.146,289.745,18.622,288.875,17.754z"/>
	</g>
</g>
<g id="flv" class="st0">
</g>
<g id="mov" class="st0">
</g>
<g id="pdf" class="st0">
</g>
<g id="svg" class="st0">
	<text transform="matrix(1 0 0 1 255.7783 41.875)" class="st2 st3 st4">SVG</text>
</g>
<g id="tiff" class="st0">
</g>
<g id="psd" class="st0">
</g>
<g id="mp4" class="st0">
</g>
<g id="m4v" class="st0">
</g>
<g id="doc" class="st0">
</g>
<g id="rtf" class="st0">
</g>
<g id="xls" class="st0">
</g>
<g id="ott" class="st0">
</g>
<g id="odt" class="st0">
</g>
<g id="txt" class="st0">
</g>
<g id="docx" class="st0">
</g>
<g id="ppt" class="st0">
</g>
<g id="xlsx" class="st0">
</g>
<g id="ods" class="st0">
</g>
<g id="jpg" class="st0">
</g>
<g id="png" class="st0">
</g>
<g id="ods_1_" class="st0">
</g>
<g id="po" class="st0">
</g>
<g id="flv_copy">
</g>
<g id="mov_copy">
</g>
<g id="pdf_copy">
</g>
<g id="svg_copy">
	<g>
		<path class="st8" d="M258.767,38.037c-0.871-0.332-1.461-0.681-1.77-1.046s-0.463-0.856-0.463-1.474
			c0-0.793,0.254-1.416,0.762-1.869s1.205-0.68,2.092-0.68c0.402,0,0.805,0.046,1.207,0.138s0.801,0.228,1.195,0.407v1.688
			c-0.371-0.262-0.748-0.461-1.131-0.598s-0.762-0.205-1.137-0.205c-0.418,0-0.738,0.084-0.961,0.252s-0.334,0.408-0.334,0.721
			c0,0.242,0.081,0.442,0.243,0.601s0.501,0.333,1.017,0.524l0.744,0.281c0.703,0.258,1.221,0.6,1.553,1.025
			s0.498,0.963,0.498,1.611c0,0.883-0.261,1.542-0.782,1.978s-1.31,0.653-2.364,0.653c-0.434,0-0.868-0.052-1.304-0.155
			s-0.856-0.257-1.263-0.46v-1.787c0.461,0.328,0.907,0.572,1.339,0.732s0.858,0.24,1.28,0.24c0.426,0,0.756-0.097,0.99-0.29
			s0.352-0.464,0.352-0.812c0-0.262-0.078-0.491-0.234-0.688s-0.383-0.353-0.68-0.466L258.767,38.037z"/>
		<path class="st8" d="M266.372,40.434l1.541-7.307h1.74l-2.08,8.748h-2.396l-2.08-8.748h1.74L266.372,40.434z"/>
		<path class="st8" d="M274.857,40.293v-1.67h-1.184V37.17h2.695v4.008c-0.332,0.285-0.699,0.501-1.1,0.647s-0.828,0.22-1.285,0.22
			c-1.133,0-2.008-0.394-2.625-1.181s-0.926-1.905-0.926-3.354c0-1.473,0.311-2.598,0.934-3.375s1.523-1.166,2.699-1.166
			c0.352,0,0.697,0.05,1.037,0.149s0.658,0.243,0.955,0.431v1.916c-0.242-0.312-0.521-0.548-0.836-0.706s-0.658-0.237-1.033-0.237
			c-0.656,0-1.146,0.247-1.471,0.741s-0.486,1.243-0.486,2.247c0,0.973,0.156,1.713,0.469,2.221s0.768,0.762,1.365,0.762
			c0.18,0,0.336-0.017,0.469-0.05S274.775,40.359,274.857,40.293z"/>
	</g>
</g>
<g id="tiff_copy">
</g>
<g id="psd_copy">
</g>
<g id="mp4_copy">
</g>
<g id="m4v_copy">
</g>
<g id="doc_copy">
</g>
<g id="rtf_copy">
</g>
<g id="xls_copy">
</g>
<g id="ott_copy">
</g>
<g id="odt_copy">
</g>
<g id="txt_copy">
</g>
<g id="docx_copy">
</g>
<g id="ppt_copy">
</g>
<g id="xlsx_copy">
</g>
<g id="ods_copy_2">
</g>
<g id="jpg_copy">
</g>
<g id="png_copy">
</g>
<g id="ods_copy">
</g>
<g id="po_copy">
</g>
</svg>
