<?xml version="1.0" encoding="utf-8"?>
<!-- Generator: Adobe Illustrator 17.0.0, SVG Export Plug-In . SVG Version: 6.00 Build 0)  -->
<!DOCTYPE svg PUBLIC "-//W3C//DTD SVG 1.1//EN" "http://www.w3.org/Graphics/SVG/1.1/DTD/svg11.dtd">
<svg version="1.1" xmlns="http://www.w3.org/2000/svg" xmlns:xlink="http://www.w3.org/1999/xlink" x="0px" y="0px" width="60px"
	 height="60px" viewBox="1200.5 0.5 60 60" style="enable-background:new 1200.5 0.5 60 60;" xml:space="preserve">
<style type="text/css">
	.st0{display:none;}
	.st1{display:inline;}
	.st2{fill:#FFFFFF;}
	.st3{fill:#787878;}
	.st4{fill:#333333;}
	.st5{fill:#BEBEBE;}
	.st6{display:inline;fill:#FFFFFF;}
	.st7{font-family:'Menlo-Bold';}
	.st8{font-size:13;}
</style>
<g id="Base_000000" class="st0">
	<g class="st1">
		<path d="M1242.875,28.875h-33c-0.825,0-1.5,0.675-1.5,1.5v15c0,0.825,0.675,1.5,1.5,1.5h33c0.827,0,1.5-0.675,1.5-1.5v-15
			C1244.375,29.55,1243.702,28.875,1242.875,28.875z"/>
		<path d="M1248.875,17.754l-9.879-9.879c-0.867-0.87-2.391-1.5-3.621-1.5h-16.5c-2.481,0-4.5,2.019-4.5,4.5v15
			c0,0.829,0.671,1.5,1.5,1.5s1.5-0.67,1.5-1.5v-15c0-0.826,0.672-1.5,1.5-1.5h13.5c1.657,0,3,1.344,3,3V18
			c0,1.857,1.521,3.375,3.375,3.375h5.625c1.657,0,3,1.344,3,3v25.5c0,0.826-0.671,1.5-1.5,1.5h-27c-0.828,0-1.5-0.674-1.5-1.5
			c0-0.829-0.671-1.5-1.5-1.5s-1.5,0.671-1.5,1.5c0,2.481,2.019,4.5,4.5,4.5h27c2.481,0,4.5-2.019,4.5-4.5v-28.5
			C1250.375,20.146,1249.745,18.622,1248.875,17.754z"/>
	</g>
</g>
<g id="Base_787878" class="st0">
	<g class="st1">
		<path class="st3" d="M1242.875,28.875h-33c-0.825,0-1.5,0.675-1.5,1.5v15c0,0.825,0.675,1.5,1.5,1.5h33c0.827,0,1.5-0.675,1.5-1.5
			v-15C1244.375,29.55,1243.702,28.875,1242.875,28.875z"/>
		<path class="st3" d="M1248.875,17.754l-9.879-9.879c-0.867-0.87-2.391-1.5-3.621-1.5h-16.5c-2.481,0-4.5,2.019-4.5,4.5v15
			c0,0.829,0.671,1.5,1.5,1.5s1.5-0.67,1.5-1.5v-15c0-0.826,0.672-1.5,1.5-1.5h13.5c1.657,0,3,1.344,3,3V18
			c0,1.857,1.521,3.375,3.375,3.375h5.625c1.657,0,3,1.344,3,3v25.5c0,0.826-0.671,1.5-1.5,1.5h-27c-0.828,0-1.5-0.674-1.5-1.5
			c0-0.829-0.671-1.5-1.5-1.5s-1.5,0.671-1.5,1.5c0,2.481,2.019,4.5,4.5,4.5h27c2.481,0,4.5-2.019,4.5-4.5v-28.5
			C1250.375,20.146,1249.745,18.622,1248.875,17.754z"/>
	</g>
</g>
<g id="Base_333333" class="st0">
	<g class="st1">
		<path class="st4" d="M1242.875,28.875h-33c-0.825,0-1.5,0.675-1.5,1.5v15c0,0.825,0.675,1.5,1.5,1.5h33c0.827,0,1.5-0.675,1.5-1.5
			v-15C1244.375,29.55,1243.702,28.875,1242.875,28.875z"/>
		<path class="st4" d="M1248.875,17.754l-9.879-9.879c-0.867-0.87-2.391-1.5-3.621-1.5h-16.5c-2.481,0-4.5,2.019-4.5,4.5v15
			c0,0.829,0.671,1.5,1.5,1.5s1.5-0.67,1.5-1.5v-15c0-0.826,0.672-1.5,1.5-1.5h13.5c1.657,0,3,1.344,3,3V18
			c0,1.857,1.521,3.375,3.375,3.375h5.625c1.657,0,3,1.344,3,3v25.5c0,0.826-0.671,1.5-1.5,1.5h-27c-0.828,0-1.5-0.674-1.5-1.5
			c0-0.829-0.671-1.5-1.5-1.5s-1.5,0.671-1.5,1.5c0,2.481,2.019,4.5,4.5,4.5h27c2.481,0,4.5-2.019,4.5-4.5v-28.5
			C1250.375,20.146,1249.745,18.622,1248.875,17.754z"/>
	</g>
</g>
<g id="Base_bebebe">
	<g>
		<path class="st5" d="M1242.875,28.875h-33c-0.825,0-1.5,0.675-1.5,1.5v15c0,0.825,0.675,1.5,1.5,1.5h33c0.827,0,1.5-0.675,1.5-1.5
			v-15C1244.375,29.55,1243.702,28.875,1242.875,28.875z"/>
		<path class="st5" d="M1248.875,17.754l-9.879-9.879c-0.867-0.87-2.391-1.5-3.621-1.5h-16.5c-2.481,0-4.5,2.019-4.5,4.5v15
			c0,0.829,0.671,1.5,1.5,1.5s1.5-0.67,1.5-1.5v-15c0-0.826,0.672-1.5,1.5-1.5h13.5c1.657,0,3,1.344,3,3V18
			c0,1.857,1.521,3.375,3.375,3.375h5.625c1.657,0,3,1.344,3,3v25.5c0,0.826-0.671,1.5-1.5,1.5h-27c-0.828,0-1.5-0.674-1.5-1.5
			c0-0.829-0.671-1.5-1.5-1.5s-1.5,0.671-1.5,1.5c0,2.481,2.019,4.5,4.5,4.5h27c2.481,0,4.5-2.019,4.5-4.5v-28.5
			C1250.375,20.146,1249.745,18.622,1248.875,17.754z"/>
	</g>
</g>
<g id="flv" class="st0">
</g>
<g id="mov" class="st0">
</g>
<g id="pdf" class="st0">
</g>
<g id="svg" class="st0">
</g>
<g id="tiff" class="st0">
</g>
<g id="psd" class="st0">
</g>
<g id="mp4" class="st0">
</g>
<g id="m4v" class="st0">
</g>
<g id="doc" class="st0">
</g>
<g id="rtf" class="st0">
</g>
<g id="xls" class="st0">
</g>
<g id="ott" class="st0">
</g>
<g id="odt" class="st0">
</g>
<g id="txt" class="st0">
</g>
<g id="docx" class="st0">
</g>
<g id="ppt" class="st0">
</g>
<g id="xlsx" class="st0">
	<text transform="matrix(1 0 0 1 1211.1118 42.375)" class="st6 st7 st8">XLSX</text>
</g>
<g id="ods" class="st0">
</g>
<g id="jpg" class="st0">
</g>
<g id="png" class="st0">
</g>
<g id="ods_1_" class="st0">
</g>
<g id="po" class="st0">
</g>
<g id="flv_copy">
</g>
<g id="mov_copy">
</g>
<g id="pdf_copy">
</g>
<g id="svg_copy">
</g>
<g id="tiff_copy">
</g>
<g id="psd_copy">
</g>
<g id="mp4_copy">
</g>
<g id="m4v_copy">
</g>
<g id="doc_copy">
</g>
<g id="rtf_copy">
</g>
<g id="xls_copy">
</g>
<g id="ott_copy">
</g>
<g id="odt_copy">
</g>
<g id="txt_copy">
</g>
<g id="docx_copy">
</g>
<g id="ppt_copy">
</g>
<g id="xlsx_copy">
	<g>
		<path class="st2" d="M1218.768,42.561h-1.937l-1.81-3.136l-1.803,3.136h-1.936l2.78-4.812l-2.704-4.665h1.936l1.727,3.015
			l1.733-3.015h1.937L1216,37.749L1218.768,42.561z"/>
		<path class="st2" d="M1220.107,42.561v-9.477h1.872v7.826h4.005v1.65H1220.107z"/>
		<path class="st2" d="M1229.482,38.402c-0.943-0.359-1.582-0.736-1.917-1.133c-0.335-0.396-0.501-0.928-0.501-1.596
			c0-0.859,0.274-1.535,0.824-2.025c0.551-0.49,1.307-0.736,2.267-0.736c0.437,0,0.872,0.05,1.308,0.149
			c0.436,0.099,0.867,0.246,1.295,0.44v1.828c-0.402-0.283-0.811-0.499-1.225-0.646c-0.415-0.148-0.826-0.223-1.232-0.223
			c-0.452,0-0.799,0.091-1.041,0.273c-0.24,0.182-0.361,0.441-0.361,0.78c0,0.263,0.088,0.479,0.264,0.65
			c0.176,0.172,0.543,0.36,1.102,0.568l0.806,0.305c0.762,0.279,1.322,0.649,1.683,1.11c0.359,0.462,0.539,1.043,0.539,1.746
			c0,0.957-0.282,1.67-0.848,2.143c-0.564,0.472-1.418,0.707-2.561,0.707c-0.471,0-0.941-0.056-1.413-0.168
			c-0.472-0.111-0.928-0.277-1.368-0.498v-1.936c0.5,0.355,0.983,0.619,1.451,0.793c0.467,0.174,0.93,0.26,1.387,0.26
			c0.461,0,0.818-0.104,1.072-0.313c0.254-0.21,0.381-0.503,0.381-0.88c0-0.283-0.084-0.531-0.254-0.745
			c-0.169-0.214-0.414-0.382-0.736-0.505L1229.482,38.402z"/>
		<path class="st2" d="M1241.467,42.561h-1.936l-1.809-3.136l-1.803,3.136h-1.937l2.78-4.812l-2.704-4.665h1.937l1.727,3.015
			l1.732-3.015h1.936l-2.691,4.665L1241.467,42.561z"/>
	</g>
</g>
<g id="ods_copy_2">
</g>
<g id="jpg_copy">
</g>
<g id="png_copy">
</g>
<g id="ods_copy">
</g>
<g id="po_copy">
</g>
</svg>
